<svg xmlns="http://www.w3.org/2000/svg" viewBox="0 0 100 100" width="100" height="100">
  <!-- Muschel Form -->
  <path d="M 20 30 
           Q 15 20, 20 15 
           Q 25 10, 35 12 
           Q 50 15, 60 20 
           Q 70 25, 75 35 
           Q 80 45, 78 55 
           Q 75 65, 70 72 
           Q 65 78, 55 80 
           Q 45 82, 35 80 
           Q 25 78, 20 70 
           Q 15 60, 15 50 
           Q 15 40, 20 30 Z" 
        fill="#f5e6d3" 
        stroke="#8b6f47" 
        stroke-width="2"/>
  
  <!-- Muschel Rillen/Linien -->
  <path d="M 25 25 Q 35 30, 45 35 Q 55 40, 65 45" 
        stroke="#8b6f47" 
        stroke-width="1.5" 
        fill="none" 
        stroke-linecap="round"/>
  <path d="M 28 35 Q 38 40, 48 45 Q 58 50, 68 55" 
        stroke="#8b6f47" 
        stroke-width="1.5" 
        fill="none" 
        stroke-linecap="round"/>
  <path d="M 30 45 Q 40 50, 50 55 Q 60 60, 70 65" 
        stroke="#8b6f47" 
        stroke-width="1.5" 
        fill="none" 
        stroke-linecap="round"/>
  <path d="M 32 55 Q 42 60, 52 65 Q 62 70, 72 72" 
        stroke="#8b6f47" 
        stroke-width="1.5" 
        fill="none" 
        stroke-linecap="round"/>
  
  <!-- Highlight für Tiefe -->
  <ellipse cx="40" cy="35" rx="8" ry="12" fill="#fff" opacity="0.3"/>
</svg>
